{"accessors" : [{"bufferView" : 0, "byteOffset" : 0, "componentType" : 5123, "count" : 65280, "type" : "SCALAR", "max" : [53802], "min" : [0]}, {"bufferView" : 1, "byteOffset" : 0, "componentType" : 5126, "count" : 53803, "type" : "VEC3", "max" : [2.937299966812134, 2.03629994392395, 1.5867999792099], "min" : [-2.937299966812134, -2.03629994392395, -1.5867999792099], "name" : "POSITION"}, {"bufferView" : 1, "byteOffset" : 12, "componentType" : 5126, "count" : 53803, "type" : "VEC3", "max" : [1.0000044107437134, 1.0000044107437134, 1.0000044107437134], "min" : [-1.0000044107437134, -1.0000044107437134, -1.0000044107437134], "name" : "NORMAL"}, {"bufferView" : 1, "byteOffset" : 24, "componentType" : 5126, "count" : 53803, "type" : "VEC3", "max" : [1, 1, 1], "min" : [0.007843137718737125, 0.34117648005485535, 0.18431372940540314], "name" : "COLOR_0"}, {"bufferView" : 0, "byteOffset" : 130560, "componentType" : 5123, "count" : 6912, "type" : "SCALAR", "max" : [6910], "min" : [0]}, {"bufferView" : 2, "byteOffset" : 0, "componentType" : 5126, "count" : 6911, "type" : "VEC3", "max" : [2.855963706970215, 1.9411790370941162, 1.4586288928985596], "min" : [-2.861664295196533, -1.9410264492034912, -1.4586288928985596], "name" : "POSITION"}, {"bufferView" : 2, "byteOffset" : 12, "componentType" : 5126, "count" : 6911, "type" : "VEC3", "max" : [0.9816704988479614, 0.9961008429527283, 1.0000044107437134], "min" : [-0.9816704988479614, -0.9961008429527283, -1.0000044107437134], "name" : "NORMAL"}, {"bufferView" : 2, "byteOffset" : 24, "componentType" : 5126, "count" : 6911, "type" : "VEC3", "max" : [1, 1, 1], "min" : [0.007843137718737125, 0.34117648005485535, 0.18431372940540314], "name" : "COLOR_0"}], "asset" : {"generator" : "Aspose.3D 23.7.0", "version" : "2.0"}, "buffers" : [{"uri" : "data:application/octet-stream;base64,", "byteLength" : 2743308}], "bufferViews" : [{"buffer" : 0, "byteOffset" : 0, "byteLength" : 144384, "target" : 34963}, {"buffer" : 0, "byteOffset" : 144388, "byteLength" : 2350080, "byteStride" : 36, "target" : 34962}, {"buffer" : 0, "byteOffset" : 2494472, "byteLength" : 248832, "byteStride" : 36, "target" : 34962}], "materials" : [{"pbrMetallicRoughness" : {"baseColorFactor" : [1, 1, 1, 1], "metallicFactor" : 0, "roughnessFactor" : 1}, "emissiveFactor" : [0, 0, 0], "alphaMode" : "OPAQUE", "doubleSided" : true}, {"pbrMetallicRoughness" : {"baseColorFactor" : [1, 1, 1, 1], "metallicFactor" : 0, "roughnessFactor" : 1}, "emissiveFactor" : [0, 0, 0], "alphaMode" : "OPAQUE", "doubleSided" : true}], "meshes" : [{"primitives" : [{"attributes" : {"POSITION" : 1, "NORMAL" : 2, "COLOR_0" : 3}, "indices" : 0, "material" : 0, "mode" : 4}]}, {"primitives" : [{"attributes" : {"POSITION" : 5, "NORMAL" : 6, "COLOR_0" : 7}, "indices" : 4, "material" : 1, "mode" : 4}]}], "nodes" : [{"matrix" : [1, 0, 0, 0, 0, 1, 0, 0, 0, 0, 1, 0, -0.01828676418456654, -0.07093367894597002, -0.06736712100049957, 1], "mesh" : 0, "name" : "Node #0"}, {"matrix" : [1, 0, 0, 0, 0, 1, 0, 0, 0, 0, 1, 0, -0.01828676418456654, -0.07093367894597002, -0.06736712100049957, 1], "mesh" : 1, "name" : "Node #1"}], "scene" : 0, "scenes" : [{"nodes" : [0, 1]}]}