{"accessors" : [{"bufferView" : 0, "byteOffset" : 0, "componentType" : 5123, "count" : 61440, "type" : "SCALAR", "max" : [50637], "min" : [0]}, {"bufferView" : 1, "byteOffset" : 0, "componentType" : 5126, "count" : 50638, "type" : "VEC3", "max" : [2.5463008880615234, 1.5781304836273193, 2.411799192428589], "min" : [-2.5463008880615234, -1.5781304836273193, -2.2652029991149902], "name" : "POSITION"}, {"bufferView" : 1, "byteOffset" : 12, "componentType" : 5126, "count" : 50638, "type" : "VEC3", "max" : [1.0000044107437134, 1.0000044107437134, 1.0000044107437134], "min" : [-1.0000044107437134, -1.0000044107437134, -1.0000044107437134], "name" : "NORMAL"}, {"bufferView" : 1, "byteOffset" : 24, "componentType" : 5126, "count" : 50638, "type" : "VEC3", "max" : [1, 1, 1], "min" : [0.007843137718737125, 0.34117648005485535, 0.18431372940540314], "name" : "COLOR_0"}, {"bufferView" : 0, "byteOffset" : 122880, "componentType" : 5123, "count" : 7344, "type" : "SCALAR", "max" : [7342], "min" : [0]}, {"bufferView" : 2, "byteOffset" : 0, "componentType" : 5126, "count" : 7343, "type" : "VEC3", "max" : [2.445488929748535, 1.4245189428329468, 2.300745725631714], "min" : [-2.445488929748535, -1.4245189428329468, -2.1606369018554688], "name" : "POSITION"}, {"bufferView" : 2, "byteOffset" : 12, "componentType" : 5126, "count" : 7343, "type" : "VEC3", "max" : [0.9946303963661194, 0.9985671043395996, 1.0000044107437134], "min" : [-0.9946303963661194, -0.9985671043395996, -1.0000044107437134], "name" : "NORMAL"}, {"bufferView" : 2, "byteOffset" : 24, "componentType" : 5126, "count" : 7343, "type" : "VEC3", "max" : [1, 1, 1], "min" : [0.007843137718737125, 0.34117648005485535, 0.18431372940540314], "name" : "COLOR_0"}], "asset" : {"generator" : "Aspose.3D 23.7.0", "version" : "2.0"}, "buffers" : [{"uri" : "data:application/octet-stream;base64,", "byteLength" : 2613804}], "bufferViews" : [{"buffer" : 0, "byteOffset" : 0, "byteLength" : 137568, "target" : 34963}, {"buffer" : 0, "byteOffset" : 137572, "byteLength" : 2211840, "byteStride" : 36, "target" : 34962}, {"buffer" : 0, "byteOffset" : 2349416, "byteLength" : 264384, "byteStride" : 36, "target" : 34962}], "materials" : [{"pbrMetallicRoughness" : {"baseColorFactor" : [1, 1, 1, 1], "metallicFactor" : 0, "roughnessFactor" : 1}, "emissiveFactor" : [0, 0, 0], "alphaMode" : "OPAQUE", "doubleSided" : true}, {"pbrMetallicRoughness" : {"baseColorFactor" : [1, 1, 1, 1], "metallicFactor" : 0, "roughnessFactor" : 1}, "emissiveFactor" : [0, 0, 0], "alphaMode" : "OPAQUE", "doubleSided" : true}], "meshes" : [{"primitives" : [{"attributes" : {"POSITION" : 1, "NORMAL" : 2, "COLOR_0" : 3}, "indices" : 0, "material" : 0, "mode" : 4}]}, {"primitives" : [{"attributes" : {"POSITION" : 5, "NORMAL" : 6, "COLOR_0" : 7}, "indices" : 4, "material" : 1, "mode" : 4}]}], "nodes" : [{"matrix" : [1, 0, 0, 0, 0, 1, 0, 0, 0, 0, 1, 0, 0.0009597381842578745, -2.3686171830572533E-06, -0.07538803570599706, 1], "mesh" : 0, "name" : "Node #0"}, {"matrix" : [1, 0, 0, 0, 0, 1, 0, 0, 0, 0, 1, 0, 0.0009597381842578745, -2.3686171830572533E-06, -0.07538803570599706, 1], "mesh" : 1, "name" : "Node #1"}], "scene" : 0, "scenes" : [{"nodes" : [0, 1]}]}