{"accessors" : [{"bufferView" : 0, "byteOffset" : 0, "componentType" : 5123, "count" : 61440, "type" : "SCALAR", "max" : [50637], "min" : [0]}, {"bufferView" : 1, "byteOffset" : 0, "componentType" : 5126, "count" : 50638, "type" : "VEC3", "max" : [1.322110891342163, 1.0619239807128906, 3.4239420890808105], "min" : [-2.3914284706115723, -3.4211645126342773, -0.7847071290016174], "name" : "POSITION"}, {"bufferView" : 1, "byteOffset" : 12, "componentType" : 5126, "count" : 50638, "type" : "VEC3", "max" : [1.0000044107437134, 1.0000044107437134, 1.0000044107437134], "min" : [-1.0000044107437134, -1.0000044107437134, -1.0000044107437134], "name" : "NORMAL"}, {"bufferView" : 1, "byteOffset" : 24, "componentType" : 5126, "count" : 50638, "type" : "VEC3", "max" : [1, 1, 1], "min" : [0.007843137718737125, 0.34117648005485535, 0.18431372940540314], "name" : "COLOR_0"}, {"bufferView" : 0, "byteOffset" : 122880, "componentType" : 5123, "count" : 7344, "type" : "SCALAR", "max" : [7342], "min" : [0]}, {"bufferView" : 2, "byteOffset" : 0, "componentType" : 5126, "count" : 7343, "type" : "VEC3", "max" : [1.1788923740386963, 0.940371572971344, 3.3339486122131348], "min" : [-2.2828128337860107, -3.3388302326202393, -0.6514859199523926], "name" : "POSITION"}, {"bufferView" : 2, "byteOffset" : 12, "componentType" : 5126, "count" : 7343, "type" : "VEC3", "max" : [0.9989486336708069, 0.9971908926963806, 0.9999921917915344], "min" : [-0.9989486336708069, -0.9971908926963806, -0.9999921917915344], "name" : "NORMAL"}, {"bufferView" : 2, "byteOffset" : 24, "componentType" : 5126, "count" : 7343, "type" : "VEC3", "max" : [1, 1, 1], "min" : [0.007843137718737125, 0.34117648005485535, 0.18431372940540314], "name" : "COLOR_0"}], "asset" : {"generator" : "Aspose.3D 23.7.0", "version" : "2.0"}, "buffers" : [{"uri" : "data:application/octet-stream;base64,", "byteLength" : 2613804}], "bufferViews" : [{"buffer" : 0, "byteOffset" : 0, "byteLength" : 137568, "target" : 34963}, {"buffer" : 0, "byteOffset" : 137572, "byteLength" : 2211840, "byteStride" : 36, "target" : 34962}, {"buffer" : 0, "byteOffset" : 2349416, "byteLength" : 264384, "byteStride" : 36, "target" : 34962}], "materials" : [{"pbrMetallicRoughness" : {"baseColorFactor" : [1, 1, 1, 1], "metallicFactor" : 0, "roughnessFactor" : 1}, "emissiveFactor" : [0, 0, 0], "alphaMode" : "OPAQUE", "doubleSided" : true}, {"pbrMetallicRoughness" : {"baseColorFactor" : [1, 1, 1, 1], "metallicFactor" : 0, "roughnessFactor" : 1}, "emissiveFactor" : [0, 0, 0], "alphaMode" : "OPAQUE", "doubleSided" : true}], "meshes" : [{"primitives" : [{"attributes" : {"POSITION" : 1, "NORMAL" : 2, "COLOR_0" : 3}, "indices" : 0, "material" : 0, "mode" : 4}]}, {"primitives" : [{"attributes" : {"POSITION" : 5, "NORMAL" : 6, "COLOR_0" : 7}, "indices" : 4, "material" : 1, "mode" : 4}]}], "nodes" : [{"matrix" : [1, 0, 0, 0, 0, 1, 0, 0, 0, 0, 1, 0, 0.6606489042140176, 1.3296239044916727, -1.3066015345215607, 1], "mesh" : 0, "name" : "Node #0"}, {"matrix" : [1, 0, 0, 0, 0, 1, 0, 0, 0, 0, 1, 0, 0.6606489042140176, 1.3296239044916727, -1.3066015345215607, 1], "mesh" : 1, "name" : "Node #1"}], "scene" : 0, "scenes" : [{"nodes" : [0, 1]}]}